<svg xmlns="http://www.w3.org/2000/svg" width="16" height="16" viewBox="0 0 16 16" shape-rendering="crispEdges">
  <path fill="#7c4a22" d="M2 0h1v1h-1zM13 0h1v1h-1zM2 1h1v1h-1zM13 1h1v1h-1zM2 2h1v1h-1zM13 2h1v1h-1zM2 3h1v1h-1zM13 3h1v1h-1zM2 4h1v1h-1zM13 4h1v1h-1zM2 5h1v1h-1zM13 5h1v1h-1zM2 6h1v1h-1zM13 6h1v1h-1zM2 7h1v1h-1zM13 7h1v1h-1zM2 8h1v1h-1zM13 8h1v1h-1zM2 9h1v1h-1zM13 9h1v1h-1zM2 10h1v1h-1zM13 10h1v1h-1zM2 11h1v1h-1zM13 11h1v1h-1zM1 12h3v1h-3zM13 12h3v1h-3z"/>
  <path fill="#e7d7b1" d="M8 0h1v1h-1zM8 1h1v1h-1zM8 2h1v1h-1zM8 3h1v1h-1zM8 4h1v1h-1zM8 5h1v1h-1zM8 6h1v1h-1zM8 7h1v1h-1zM8 8h1v1h-1zM8 9h1v1h-1zM8 10h1v1h-1zM8 11h1v1h-1z"/>
  <path fill="#4a2e14" d="M1 13h3v1h-3zM13 13h3v1h-3z"/>
</svg>
