<svg xmlns="http://www.w3.org/2000/svg" width="16" height="16" viewBox="0 0 16 16" shape-rendering="crispEdges">
  <!-- A dedicated town-guide sprite: grey hair, glasses, lab coat, stethoscope. -->
  <path fill="#20343e" d="M5 1h6v1h1v6h-1v1h1v1h1v3h-1v1h-1v2H9v-2H7v2H5v-2H4v-1H3v-3h1V9h1V8H4V2h1z"/>
  <path fill="#b7c8ce" d="M5 2h6v2H5zM4 4h1v3H4zM11 4h1v3h-1z"/>
  <path fill="#f4dfbf" d="M5 4h6v4H5zM6 8h4v1H6zM3 12h1v1H3zM12 12h1v1h-1z"/>
  <path fill="#edf5f6" d="M5 2h2v1H5zM9 2h2v1H9z"/>
  <path fill="#314e5b" d="M5 5h2v2H5zM9 5h2v2H9zM7 5h2v1H7z"/>
  <path fill="#9bd7e0" d="M5 5h1v1H5zM9 5h1v1H9z"/>
  <path fill="#8f9da4" d="M6 7h4v1H6z"/>
  <path fill="#f7fcfc" d="M4 9h8v5H4zM3 10h1v2H3zM12 10h1v2h-1z"/>
  <path fill="#4b9a9b" d="M7 9h2v3H7z"/>
  <path fill="#c7dce2" d="M5 9h1v1h1v1H6v-1H5zM10 9h1v1h-1v1H9v-1h1zM8 12h1v2H8zM10 11h2v1h-2z"/>
  <path fill="#415c69" d="M5 10h1v2H5zM6 12h1v1H6zM7 11h1v2H7z"/>
  <path fill="#7e9dab" d="M5 12h1v1H5zM8 12h1v1H8z"/>
  <path fill="#344954" d="M5 14h2v1H5zM9 14h2v1H9z"/>
</svg>
